<?xml version="1.0" standalone="no"?>
<!DOCTYPE svg PUBLIC "-//W3C//DTD SVG 20010904//EN"
 "http://www.w3.org/TR/2001/REC-SVG-20010904/DTD/svg10.dtd">
<svg version="1.0" xmlns="http://www.w3.org/2000/svg"
 width="50" height="50" viewBox="0 0 512.000000 512.000000"
 preserveAspectRatio="xMidYMid meet">

<g transform="translate(0.000000,512.000000) scale(0.100000,-0.100000)"
fill="orange" stroke="none">
<path d="M1678 3153 c-295 -295 -542 -550 -549 -565 -9 -21 -9 -35 0 -56 7
-15 254 -270 549 -565 491 -491 540 -537 570 -537 44 0 82 38 82 82 0 30 -41
74 -467 500 l-468 468 1267 0 c920 0 1274 3 1292 11 55 26 55 112 0 138 -18 8
-372 11 -1292 11 l-1267 0 468 468 c426 426 467 470 467 500 0 44 -38 82 -82
82 -30 0 -79 -46 -570 -537z"/>
</g>
</svg>